<svg xmlns="http://www.w3.org/2000/svg" width="1024" height="1024" viewBox="0 0 1024 1024" fill="none">
  <rect x="64" y="64" width="896" height="896" rx="192" fill="#232329"/>
  <path
    d="M512 224c120 72 192 96 288 120v192c0 168-96 288-288 360-192-72-288-192-288-360V344c96-24 168-48 288-120z"
    fill="#52D084"
  />
  <path
    d="M512 288c88 52 144 72 216 92v152c0 128-72 224-216 280-144-56-216-152-216-280V380c72-20 128-40 216-92z"
    fill="#232329"
    opacity="0.35"
  />
  <path
    d="M448 392h88c44 0 80 28 80 68 0 32-20 56-52 64 40 8 68 36 68 80 0 52-44 88-100 88h-84V392zm44 36v72h40c24 0 40-12 40-32s-16-40-40-40h-40zm0 108v84h48c28 0 48-16 48-40s-20-44-48-44h-48z"
    fill="#F4F4F5"
  />
</svg>
